<svg xmlns:xlink="http://www.w3.org/1999/xlink" data-name="Layer 2" xmlns="http://www.w3.org/2000/svg" viewBox="0 0 665 598" width="665" height="598" data-prefix="is7mx9xzy"><g data-name="Layer 1"><path d="M525.39 0H141.41C63.96 0 0 62 0 139.45v122.18l75-71.14v-51.04C75 103.48 105.44 75 141.41 75h383.98c35.98 0 64.61 28.48 64.61 64.45v317.99c0 35.97-28.63 65.56-64.61 65.56H453v75h72.39C602.85 598 665 534.89 665 457.44V139.45C665 62 602.85 0 525.39 0z" class="path-i80ujmnp1" fill="#FFFFFF"></path><path d="M560.01 412H453.94l-192.1-192.1L75.5 406.24 69.74 412H0v-36.91l75.25-75.17.62-.5 185.9-185.71L560.01 412z" class="path-i5ez4rzbz" fill="#FF9A18"></path><path d="M266 366h41v42h-41zM214 366h42v42h-42zM214 417h42v42h-42zM266 417h41v42h-41zM75 299.92V598H0V375.09l75-75.17z" class="path-it06sa7wr" fill="#FF9A18"></path><path d="M0 523h408v75H0z" class="path-i89kmc1qo" fill="#FF9A18"></path></g></svg>