<svg xmlns:xlink="http://www.w3.org/1999/xlink" xmlns="http://www.w3.org/2000/svg" viewBox="0 0 38 38" width="38" height="38" data-prefix="i0pcs9osf"><g stroke-linecap="round" stroke-linejoin="round" stroke-width="2px" data-name="Слой 2"><path d="M21 36.9c-.66.06-1.32.1-2 .1a18 18 0 1 1 17-24M15 25H2.04M2.04 13H19M16.94 1.12a42.54 42.54 0 0 0 0 35.76M24.22 11a42.17 42.17 0 0 0-3.16-9.88" fill="none" class="path-iz4wftb9i" stroke="#FF9A18" stroke-width="2px"></path><path d="M37 25.21C37 29.75 29 37 29 37s-8-7.25-8-11.79a8 8 0 1 1 16 0z" fill="none" class="path-ie9sqvqao" stroke="#FF9A18" stroke-width="2px"></path><circle cx="29" cy="25" r="3" fill="none" class="circle-iwzemyhwt" stroke="#FF9A18" stroke-width="2px"></circle></g></svg>